<?xml version="1.0" encoding="UTF-8" standalone="no"?>
<svg
   xmlns:dc="http://purl.org/dc/elements/1.1/"
   xmlns:cc="http://creativecommons.org/ns#"
   xmlns:rdf="http://www.w3.org/1999/02/22-rdf-syntax-ns#"
   xmlns:svg="http://www.w3.org/2000/svg"
   xmlns="http://www.w3.org/2000/svg"
   xmlns:sodipodi="http://sodipodi.sourceforge.net/DTD/sodipodi-0.dtd"
   xmlns:inkscape="http://www.inkscape.org/namespaces/inkscape"
   id="Capa_1"
   data-name="Capa 1"
   viewBox="0 0 28 28"
   version="1.1"
   sodipodi:docname="paperplane.svg"
   inkscape:version="0.92.4 5da689c313, 2019-01-14">
  <metadata
     id="metadata11">
    <rdf:RDF>
      <cc:Work
         rdf:about="">
        <dc:format>image/svg+xml</dc:format>
        <dc:type
           rdf:resource="http://purl.org/dc/dcmitype/StillImage" />
      </cc:Work>
    </rdf:RDF>
  </metadata>
  <defs
     id="defs9" />
  <sodipodi:namedview
     pagecolor="#ffffff"
     bordercolor="#666666"
     borderopacity="1"
     objecttolerance="10"
     gridtolerance="10"
     guidetolerance="10"
     inkscape:pageopacity="0"
     inkscape:pageshadow="2"
     inkscape:window-width="1920"
     inkscape:window-height="1019"
     id="namedview7"
     showgrid="false"
     inkscape:zoom="8.4285714"
     inkscape:cx="14"
     inkscape:cy="14"
     inkscape:window-x="0"
     inkscape:window-y="32"
     inkscape:window-maximized="1"
     inkscape:current-layer="Capa_1" />
  <title
     id="title2">79</title>
  <path
     d="M26.45,2.31s0,0,0-.05,0,0,0-.08,0,0,0,0l0-.05s0,0,0,0l0,0,0,0a0,0,0,0,1,0,0l0,0-.05,0h-.05l-.06,0-.06,0h-.17l-.06,0-.06,0h-.06L1.1,15.9a.49.49,0,0,0-.26.46.51.51,0,0,0,.3.43l6.18,2.72v6.15a.51.51,0,0,0,.34.47.45.45,0,0,0,.16,0,.47.47,0,0,0,.39-.2L12,21.09l7.25,3.72a.59.59,0,0,0,.22.05.45.45,0,0,0,.2,0A.5.5,0,0,0,20,24.5l6.48-22h0V2.44h0a.28.28,0,0,0,0-.09S26.45,2.32,26.45,2.31Zm-4,2.59L7.72,18.59,2.46,16.28ZM8.32,19.4,21.76,6.92,8.32,24.2Zm10.85,4.24-6.5-3.33,12-15.56Z"
     id="path4"
     style="fill:#000000;fill-opacity:0.19607843" />
</svg>
